<svg xmlns="http://www.w3.org/2000/svg" version="1.1" xmlns:xlink="http://www.w3.org/1999/xlink" xmlns:svgjs="http://svgjs.dev/svgjs" width="1500" height="1500" viewBox="0 0 1500 1500"><rect width="1500" height="1500" fill="#ffffff"></rect><g transform="matrix(0.6666666666666666,0,0,0.6666666666666666,249.45001105432976,274.21966464692247)"><svg viewBox="0 0 347 330" data-background-color="#ffffff" preserveAspectRatio="xMidYMid meet" height="1426" width="1500" xmlns="http://www.w3.org/2000/svg" xmlns:xlink="http://www.w3.org/1999/xlink"><g id="tight-bounds" transform="matrix(1,0,0,1,0.1908461641475867,0.15516549773730048)"><svg viewBox="0 0 346.6183076717048 247.2" height="247.2" width="346.6183076717048"><g><svg viewBox="0 0 388.47186265837456 277.0489680542322" height="247.2" width="346.6183076717048"><g><svg viewBox="0 0 388.47186265837456 277.0489680542322" height="277.0489680542322" width="388.47186265837456"><g id="textblocktransform"><svg viewBox="0 0 388.47186265837456 277.0489680542322" height="277.0489680542322" width="388.47186265837456" id="textblock"><g><rect width="388.47186265837456" height="246.672304" fill="none" stroke-width="8.962371322224001" stroke="#000000" data-fill-palette-color="none" data-stroke-palette-color="tertiary"></rect><rect width="388.47186265837456" height="122.826816452448" y="246.672304" fill="#000000" data-fill-palette-color="tertiary"></rect></g><g><svg viewBox="0 0 388.47186265837456 245.672304" height="245.672304" width="388.47186265837456"><g transform="matrix(1,0,0,1,23.461705032,23.461705032)"><svg width="341.54845259437457" viewBox="2.25 -36.5 72.95 42.45" height="198.748893936" data-palette-color="#113f67"><path d="M30 5.95L30 5.95 4.55 5.95Q3.35 5.95 2.8 5.4 2.25 4.85 2.25 3.65L2.25 3.65 2.25-28.75Q2.25-29.4 2.43-29.85 2.6-30.3 2.95-30.6L2.95-30.6 9.4-36.05Q9.65-36.25 10.08-36.38 10.5-36.5 11-36.5L11-36.5 18.75-36.5Q19.95-36.5 20.5-35.95 21.05-35.4 21.05-34.2L21.05-34.2 21.05-13.85 21.15-13.95 27.6-19.4Q27.85-19.6 28.28-19.73 28.7-19.85 29.2-19.85L29.2-19.85 36.45-19.85Q37.65-19.85 38.2-19.3 38.75-18.75 38.75-17.55L38.75-17.55 38.75-1.8Q38.75-1.15 38.58-0.7 38.4-0.25 38.05 0.05L38.05 0.05 31.55 5.45Q31.35 5.65 30.93 5.8 30.5 5.95 30 5.95ZM11 0L36.45 0Q37.4 0 37.83-0.43 38.25-0.85 38.25-1.8L38.25-1.8 38.25-17.55Q38.25-18.5 37.83-18.93 37.4-19.35 36.45-19.35L36.45-19.35 29.2-19.35Q28.25-19.35 27.83-18.93 27.4-18.5 27.4-17.55L27.4-17.55 27.4-9.45 20.55-9.45 20.55-34.2Q20.55-35.15 20.13-35.58 19.7-36 18.75-36L18.75-36 11-36Q10.05-36 9.63-35.58 9.2-35.15 9.2-34.2L9.2-34.2 9.2-1.8Q9.2-0.85 9.63-0.43 10.05 0 11 0L11 0ZM33.05-4.5L14.65-4.5 14.65-31.5 15.15-31.5 15.15-5 32.55-5 32.55-14.85 33.05-14.85 33.05-4.5ZM66.45 5.95L66.45 5.95 54.25 5.95Q47.7 5.95 44.57 2.55 41.45-0.85 41.45-6.25L41.45-6.25 41.45-20.3Q41.45-23.05 42.25-25.08 43.05-27.1 44.6-28.45L44.6-28.45 51.1-33.9Q52.65-35.2 55.05-35.85 57.45-36.5 60.7-36.5L60.7-36.5 72.9-36.5Q74.1-36.5 74.65-35.95 75.2-35.4 75.2-34.2L75.2-34.2 75.2-28.15Q75.2-27.5 75.02-27.05 74.85-26.6 74.5-26.3L74.5-26.3 68-20.9Q67.8-20.7 67.37-20.55 66.95-20.4 66.45-20.4L66.45-20.4 60.3-20.4 60.3-11.95Q60.3-10.9 60.95-10.48 61.6-10.05 62.85-10.05L62.85-10.05 72.9-10.05Q74.1-10.05 74.65-9.5 75.2-8.95 75.2-7.75L75.2-7.75 75.2-1.8Q75.2-1.15 75.02-0.7 74.85-0.25 74.5 0.05L74.5 0.05 68 5.45Q67.8 5.65 67.37 5.8 66.95 5.95 66.45 5.95ZM60.7 0L72.9 0Q73.85 0 74.27-0.43 74.7-0.85 74.7-1.8L74.7-1.8 74.7-7.75Q74.7-8.7 74.27-9.13 73.85-9.55 72.9-9.55L72.9-9.55 62.85-9.55Q61.3-9.55 60.55-10.13 59.8-10.7 59.8-11.95L59.8-11.95 59.8-23.85Q59.8-25.1 60.55-25.73 61.3-26.35 62.85-26.35L62.85-26.35 72.9-26.35Q73.85-26.35 74.27-26.78 74.7-27.2 74.7-28.15L74.7-28.15 74.7-34.2Q74.7-35.15 74.27-35.58 73.85-36 72.9-36L72.9-36 60.7-36Q54.45-36 51.42-33.48 48.4-30.95 48.4-25.75L48.4-25.75 48.4-10.2Q48.4-5 51.42-2.5 54.45 0 60.7 0L60.7 0ZM61.8-5L70.15-5 70.15-4.5 61.8-4.5Q56.95-4.5 55.37-6 53.8-7.5 53.8-10.95L53.8-10.95 53.8-24.95Q53.8-28.5 55.4-30 57-31.5 61.8-31.5L61.8-31.5 70.15-31.5 70.15-31 61.8-31Q57.4-31 55.85-29.63 54.3-28.25 54.3-24.95L54.3-24.95 54.3-10.95Q54.3-7.7 55.8-6.35 57.3-5 61.8-5L61.8-5Z" opacity="1" transform="matrix(1,0,0,1,0,0)" fill="#000000" class="wordmark-text-0" data-fill-palette-color="primary" id="text-0"></path></svg></g></svg></g><g transform="matrix(1,0,0,1,74.19812576774954,245.672304)"><svg viewBox="0 0 240.07561112287547 31.376664054232236" height="31.376664054232236" width="240.07561112287547"><g transform="matrix(1,0,0,1,20,3.2)"><svg width="200.07561112287547" viewBox="3.25 -32.64 335.16 41.84" height="24.976664054232234" data-palette-color="#ffffff"><path d="M10.33 0.24Q7.01 0.24 5.13-1.62 3.25-3.49 3.25-6.79L3.25-6.79 3.25-21.83Q3.25-22.78 5-22.78L5-22.78 5.18-22.78Q6.91-22.78 6.91-21.83L6.91-21.83 6.91-7.13Q6.91-5.13 8.07-4.02 9.23-2.91 11.33-2.91L11.33-2.91Q12.79-2.91 14.26-3.72 15.72-4.54 16.8-5.96L16.8-5.96 16.8-21.83Q16.8-22.78 18.53-22.78L18.53-22.78 18.7-22.78Q20.46-22.78 20.46-21.83L20.46-21.83 20.46-6.42Q20.46-3.59 20.7-2.33 20.95-1.07 20.95-0.95L20.95-0.95Q20.95-0.42 20.14-0.18 19.34 0.05 18.63 0.05L18.63 0.05Q18.02 0.05 17.72-0.65 17.43-1.34 17.3-2.08 17.16-2.81 17.11-3L17.11-3Q15.75-1.46 13.95-0.61 12.16 0.24 10.33 0.24L10.33 0.24ZM29.66 0.07Q28.73 0.07 28.32-0.16 27.9-0.39 27.9-0.88L27.9-0.88 27.9-16.11Q27.9-18.95 27.63-20.2 27.37-21.46 27.37-21.58L27.37-21.58Q27.37-22.12 28.18-22.35 29-22.58 29.73-22.58L29.73-22.58Q30.34-22.58 30.64-21.92 30.93-21.26 31.06-20.58 31.2-19.9 31.25-19.7L31.25-19.7Q32.61-21.24 34.41-22.09 36.2-22.95 38.03-22.95L38.03-22.95Q41.35-22.95 43.22-21.08 45.09-19.21 45.09-15.94L45.09-15.94 45.09-0.88Q45.09-0.39 44.68-0.16 44.26 0.07 43.36 0.07L43.36 0.07 43.16 0.07Q42.28 0.07 41.87-0.16 41.45-0.39 41.45-0.88L41.45-0.88 41.45-15.58Q41.45-17.58 40.29-18.69 39.13-19.8 37.03-19.8L37.03-19.8Q35.57-19.8 34.09-18.98 32.61-18.16 31.54-16.75L31.54-16.75 31.54-0.88Q31.54-0.39 31.13-0.16 30.71 0.07 29.83 0.07L29.83 0.07 29.66 0.07ZM58.12 0.07Q56.59 0.07 56.37-0.61L56.37-0.61 49.38-21.48Q49.24-21.92 49.24-22.05L49.24-22.05Q49.24-22.39 49.7-22.58 50.17-22.78 51.12-22.78L51.12-22.78 51.34-22.78Q52.85-22.78 53.07-22.09L53.07-22.09 57.49-8.25Q58.03-6.64 58.74-3.86L58.74-3.86 59-2.83 59.2-2.83 59.49-4.13Q60.03-6.69 60.49-8.15L60.49-8.15 64.96-22.09Q65.18-22.78 66.74-22.78L66.74-22.78 66.87-22.78Q68.5-22.78 68.5-22.05L68.5-22.05Q68.5-21.8 68.33-21.46L68.33-21.46 61.37-0.61Q61.15 0.07 59.61 0.07L59.61 0.07 58.12 0.07ZM82.41 0.24Q77.02 0.24 74.39-2.58 71.77-5.4 71.77-11.21L71.77-11.21Q71.77-16.97 74.33-19.96 76.9-22.95 81.88-22.95L81.88-22.95Q86.32-22.95 88.58-20.07 90.84-17.19 90.84-11.62L90.84-11.62Q90.84-11.38 90.58-10.95 90.32-10.52 89.97-10.19 89.62-9.86 89.37-9.86L89.37-9.86 75.68-9.86Q75.94-6.23 77.54-4.55 79.14-2.88 82.37-2.88L82.37-2.88Q84.17-2.88 85.48-3.32 86.78-3.76 88.01-4.39L88.01-4.39Q88.13-4.44 88.37-4.57 88.62-4.69 88.71-4.69L88.71-4.69Q88.98-4.69 89.34-4.26 89.69-3.83 89.95-3.31 90.2-2.78 90.2-2.54L90.2-2.54Q90.2-2 89.13-1.34 88.05-0.68 86.26-0.22 84.47 0.24 82.41 0.24L82.41 0.24ZM75.68-12.99L86.96-12.99Q86.96-19.82 81.76-19.82L81.76-19.82Q76.16-19.82 75.68-12.99L75.68-12.99ZM98.31-28.17Q96.57-28.17 96.57-29.13L96.57-29.13 96.57-31.69Q96.57-32.64 98.31-32.64L98.31-32.64 98.82-32.64Q100.58-32.64 100.58-31.69L100.58-31.69 100.58-29.13Q100.58-28.17 98.82-28.17L98.82-28.17 98.31-28.17ZM98.48 0.07Q96.74 0.07 96.74-0.88L96.74-0.88 96.74-21.83Q96.74-22.78 98.48-22.78L98.48-22.78 98.65-22.78Q100.41-22.78 100.41-21.83L100.41-21.83 100.41-0.88Q100.41 0.07 98.65 0.07L98.65 0.07 98.48 0.07ZM113.44 0.24Q111.27 0.24 109.56-1.07 107.85-2.39 107.85-5.74L107.85-5.74 107.85-31.69Q107.85-32.64 109.58-32.64L109.58-32.64 109.78-32.64Q111.49-32.64 111.49-31.69L111.49-31.69 111.49-6.08Q111.49-4.3 112.12-3.59 112.76-2.88 113.83-2.88L113.83-2.88Q114.64-2.88 115.1-2.98 115.56-3.08 115.71-3.08L115.71-3.08Q116.1-3.08 116.36-2.29 116.61-1.51 116.61-1.05L116.61-1.05Q116.61 0.24 113.44 0.24L113.44 0.24ZM122.71-28.17Q120.98-28.17 120.98-29.13L120.98-29.13 120.98-31.69Q120.98-32.64 122.71-32.64L122.71-32.64 123.23-32.64Q124.99-32.64 124.99-31.69L124.99-31.69 124.99-29.13Q124.99-28.17 123.23-28.17L123.23-28.17 122.71-28.17ZM122.89 0.07Q121.15 0.07 121.15-0.88L121.15-0.88 121.15-21.83Q121.15-22.78 122.89-22.78L122.89-22.78 123.06-22.78Q124.81-22.78 124.81-21.83L124.81-21.83 124.81-0.88Q124.81 0.07 123.06 0.07L123.06 0.07 122.89 0.07ZM134.19 0.07Q133.26 0.07 132.84-0.16 132.43-0.39 132.43-0.88L132.43-0.88 132.43-16.11Q132.43-18.95 132.16-20.2 131.89-21.46 131.89-21.58L131.89-21.58Q131.89-22.12 132.71-22.35 133.53-22.58 134.26-22.58L134.26-22.58Q134.87-22.58 135.16-21.92 135.46-21.26 135.59-20.58 135.72-19.9 135.77-19.7L135.77-19.7Q137.14-21.24 138.94-22.09 140.73-22.95 142.56-22.95L142.56-22.95Q145.88-22.95 147.75-21.08 149.62-19.21 149.62-15.94L149.62-15.94 149.62-0.88Q149.62-0.39 149.2-0.16 148.79 0.07 147.88 0.07L147.88 0.07 147.69 0.07Q146.81 0.07 146.39-0.16 145.98-0.39 145.98-0.88L145.98-0.88 145.98-15.58Q145.98-17.58 144.82-18.69 143.66-19.8 141.56-19.8L141.56-19.8Q140.09-19.8 138.62-18.98 137.14-18.16 136.07-16.75L136.07-16.75 136.07-0.88Q136.07-0.39 135.65-0.16 135.24 0.07 134.36 0.07L134.36 0.07 134.19 0.07ZM163.85 9.2Q159.7 9.2 157.28 7.91 154.86 6.62 154.86 3.83L154.86 3.83Q154.86 1.93 155.96 0.51 157.06-0.9 158.82-1.61L158.82-1.61 158.87-1.71Q158.01-2.37 157.56-3.22 157.11-4.08 157.11-5.25L157.11-5.25Q157.11-8.08 159.55-9.79L159.55-9.79Q157.72-10.67 156.77-12.27 155.81-13.87 155.81-15.87L155.81-15.87Q155.81-17.87 156.8-19.48 157.79-21.09 159.72-22.02 161.65-22.95 164.36-22.95L164.36-22.95Q165.8-22.95 166.92-22.71L166.92-22.71 174.81-22.71Q175.27-22.71 175.48-22.4 175.69-22.09 175.69-21.41L175.69-21.41 175.69-20.87Q175.69-20.19 175.48-19.89 175.27-19.58 174.81-19.58L174.81-19.58Q173.17-19.58 171.78-19.7L171.78-19.7 171.73-19.63Q172.29-18.85 172.58-17.88 172.86-16.92 172.86-15.87L172.86-15.87Q172.86-13.87 171.87-12.26 170.88-10.64 168.96-9.72 167.05-8.79 164.31-8.79L164.31-8.79Q162.26-8.72 161.22-8.03 160.19-7.35 160.19-5.79L160.19-5.79Q160.19-4.64 160.93-4.03 161.67-3.42 162.8-3.17 163.92-2.93 165.92-2.71L165.92-2.71 167.19-2.56Q169.22-2.29 170.59-1.83 171.95-1.37 172.84-0.29 173.73 0.78 173.73 2.66L173.73 2.66Q173.73 5.81 171.22 7.51 168.71 9.2 163.85 9.2L163.85 9.2ZM164.31-11.67Q166.7-11.67 168.12-12.65 169.54-13.62 169.54-15.84L169.54-15.84Q169.54-20.04 164.31-20.04L164.31-20.04Q159.16-20.04 159.16-15.84L159.16-15.84Q159.16-13.62 160.56-12.65 161.97-11.67 164.31-11.67L164.31-11.67ZM164.31 6.25Q167.34 6.25 168.8 5.46 170.27 4.66 170.27 3.05L170.27 3.05Q170.27 2 169.49 1.43 168.71 0.85 167.57 0.62 166.44 0.39 164.58 0.2L164.58 0.2Q163.31 0.05 162.49-0.07 161.67-0.2 160.99-0.42L160.99-0.42Q158.11 0.81 158.11 3.13L158.11 3.13Q158.11 6.25 164.31 6.25L164.31 6.25ZM197.24 0.24Q195.07 0.24 193.36-1.07 191.65-2.39 191.65-5.74L191.65-5.74 191.65-19.58 189.48-19.58Q189.01-19.58 188.81-19.89 188.6-20.19 188.6-20.87L188.6-20.87 188.6-21.41Q188.6-22.09 188.81-22.4 189.01-22.71 189.48-22.71L189.48-22.71 191.65-22.71 192.16-27.25Q192.21-28.2 193.55-28.2L193.55-28.2 193.97-28.2Q194.65-28.2 194.97-27.97 195.29-27.73 195.29-27.25L195.29-27.25 195.29-22.71 198.93-22.71Q199.39-22.71 199.6-22.4 199.8-22.09 199.8-21.41L199.8-21.41 199.8-20.87Q199.8-20.19 199.6-19.89 199.39-19.58 198.93-19.58L198.93-19.58 195.29-19.58 195.29-6.08Q195.29-4.3 195.91-3.59 196.53-2.88 197.61-2.88L197.61-2.88Q198.44-2.88 198.89-2.98 199.34-3.08 199.49-3.08L199.49-3.08Q199.88-3.08 200.13-2.29 200.39-1.51 200.39-1.05L200.39-1.05Q200.39 0.24 197.24 0.24L197.24 0.24ZM207.59 0.07Q205.86 0.07 205.86-0.88L205.86-0.88 205.86-31.69Q205.86-32.64 207.59-32.64L207.59-32.64 207.76-32.64Q209.52-32.64 209.52-31.69L209.52-31.69 209.52-19.97Q210.79-21.26 212.5-22.11 214.21-22.95 216.13-22.95L216.13-22.95Q218.87-22.95 220.96-21.41 223.04-19.87 223.04-15.94L223.04-15.94 223.04-0.88Q223.04 0.07 221.31 0.07L221.31 0.07 221.14 0.07Q219.38 0.07 219.38-0.88L219.38-0.88 219.38-15.58Q219.38-17.55 218.26-18.68 217.14-19.8 214.96-19.8L214.96-19.8Q213.52-19.8 212.31-19.12 211.11-18.43 210.31-17.64 209.52-16.85 209.52-16.75L209.52-16.75 209.52-0.88Q209.52 0.07 207.76 0.07L207.76 0.07 207.59 0.07ZM239.42 0.24Q234.03 0.24 231.4-2.58 228.78-5.4 228.78-11.21L228.78-11.21Q228.78-16.97 231.34-19.96 233.91-22.95 238.89-22.95L238.89-22.95Q243.33-22.95 245.59-20.07 247.85-17.19 247.85-11.62L247.85-11.62Q247.85-11.38 247.59-10.95 247.33-10.52 246.98-10.19 246.63-9.86 246.38-9.86L246.38-9.86 232.68-9.86Q232.95-6.23 234.55-4.55 236.15-2.88 239.37-2.88L239.37-2.88Q241.18-2.88 242.49-3.32 243.79-3.76 245.01-4.39L245.01-4.39Q245.14-4.44 245.38-4.57 245.62-4.69 245.72-4.69L245.72-4.69Q245.99-4.69 246.34-4.26 246.7-3.83 246.95-3.31 247.21-2.78 247.21-2.54L247.21-2.54Q247.21-2 246.14-1.34 245.06-0.68 243.27-0.22 241.47 0.24 239.42 0.24L239.42 0.24ZM232.68-12.99L243.96-12.99Q243.96-19.82 238.76-19.82L238.76-19.82Q233.17-19.82 232.68-12.99L232.68-12.99ZM269.2 0.07Q267.62 0.07 267.47-0.61L267.47-0.61 261.76-21.19Q261.51-21.88 261.51-22.05L261.51-22.05Q261.51-22.78 263.51-22.78L263.51-22.78Q265.08-22.78 265.25-22.09L265.25-22.09 268.91-8.2Q269.01-7.86 269.55-5.42L269.55-5.42Q269.67-4.76 270.01-3.25L270.01-3.25Q270.5-6.25 271.08-8.25L271.08-8.25 274.67-22.05Q274.84-22.78 276.38-22.78L276.38-22.78 276.67-22.78Q278.16-22.78 278.38-22.05L278.38-22.05 282-8.25Q282.58-6.1 282.97-4.03L282.97-4.03Q283-3.88 283.09-3.3L283.09-3.3Q283.78-6.91 284.1-8.15L284.1-8.15 287.76-22.09Q287.93-22.78 289.52-22.78L289.52-22.78Q291.25-22.78 291.25-22.05L291.25-22.05Q291.25-21.78 291.13-21.46L291.13-21.46 285.29-0.61Q285.15 0.07 283.58 0.07L283.58 0.07 282.26 0.07Q280.73 0.07 280.58-0.61L280.58-0.61 277.09-14.38Q276.77-15.72 276.45-17.75L276.45-17.75Q276.14-15.63 275.8-14.4L275.8-14.4 272.26-0.61Q272.11 0.07 270.5 0.07L270.5 0.07 269.2 0.07ZM305.68 0.24Q300.28 0.24 297.66-2.58 295.03-5.4 295.03-11.21L295.03-11.21Q295.03-16.97 297.59-19.96 300.16-22.95 305.14-22.95L305.14-22.95Q309.58-22.95 311.84-20.07 314.1-17.19 314.1-11.62L314.1-11.62Q314.1-11.38 313.84-10.95 313.59-10.52 313.23-10.19 312.88-9.86 312.63-9.86L312.63-9.86 298.94-9.86Q299.21-6.23 300.8-4.55 302.4-2.88 305.63-2.88L305.63-2.88Q307.43-2.88 308.74-3.32 310.05-3.76 311.27-4.39L311.27-4.39Q311.39-4.44 311.63-4.57 311.88-4.69 311.97-4.69L311.97-4.69Q312.24-4.69 312.6-4.26 312.95-3.83 313.21-3.31 313.46-2.78 313.46-2.54L313.46-2.54Q313.46-2 312.39-1.34 311.32-0.68 309.52-0.22 307.73 0.24 305.68 0.24L305.68 0.24ZM298.94-12.99L310.22-12.99Q310.22-19.82 305.02-19.82L305.02-19.82Q299.43-19.82 298.94-12.99L298.94-12.99ZM329.99 0.24Q326.18 0.24 323.08-3L323.08-3Q322.88-1.66 322.37-0.44L322.37-0.44Q322.27-0.15 321.99-0.04 321.71 0.07 321.22 0.07L321.22 0.07 321.05 0.07Q320.37 0.07 320.06-0.16 319.76-0.39 319.76-0.88L319.76-0.88 319.76-31.69Q319.76-32.64 321.47-32.64L321.47-32.64 321.66-32.64Q323.37-32.64 323.37-31.69L323.37-31.69 323.37-20.75Q324.79-21.83 326.25-22.39 327.72-22.95 329.6-22.95L329.6-22.95Q332.19-22.95 334.19-21.61 336.19-20.26 337.3-17.65 338.41-15.04 338.41-11.38L338.41-11.38Q338.41-8.01 337.39-5.36 336.36-2.71 334.46-1.23 332.55 0.24 329.99 0.24L329.99 0.24ZM329.26-2.91Q331.82-2.91 333.2-5.19 334.58-7.47 334.58-11.67L334.58-11.67Q334.58-15.58 333.11-17.63 331.65-19.68 328.77-19.75L328.77-19.75Q327.33-19.75 325.94-19.26 324.54-18.77 323.37-17.8L323.37-17.8 323.37-5.91Q324.72-4.47 326.25-3.69 327.79-2.91 329.26-2.91L329.26-2.91Z" opacity="1" transform="matrix(1,0,0,1,0,0)" fill="#ffffff" class="slogan-text-1" data-fill-palette-color="quaternary" id="text-1"></path></svg></g></svg></g></svg></g></svg></g></svg></g><defs></defs></svg><rect width="346.6183076717048" height="247.2" fill="none" stroke="none" visibility="hidden"></rect></g></svg></g></svg>